<?xml version="1.0" encoding="UTF-8"?>
<svg version="1.1" xmlns="http://www.w3.org/2000/svg" width="180" height="184">
<path d="M0 0 C59.4 0 118.8 0 180 0 C180 60.72 180 121.44 180 184 C120.6 184 61.2 184 0 184 C0 123.28 0 62.56 0 0 Z " fill="#010101" transform="translate(0,0)"/>
<path d="M0 0 C59.4 0 118.8 0 180 0 C180 60.72 180 121.44 180 184 C120.6 184 61.2 184 0 184 C0 123.28 0 62.56 0 0 Z M62 17 C61.0925 17.30035156 60.185 17.60070312 59.25 17.91015625 C41.51101933 24.31281958 25.7454277 39.17617388 16.63671875 55.50390625 C7.40898594 75.2146959 4.41417565 96.80261378 11.390625 117.74609375 C19.18583397 139.07546565 32.75773652 155.26972607 53 166 C64.21919373 171.02313901 74.01961842 173.338306 86.25 173.25 C87.30574219 173.25773438 88.36148438 173.26546875 89.44921875 173.2734375 C100.27477171 173.24693676 110.20180715 171.98014035 120.0625 167.375 C121.21455933 166.8493042 121.21455933 166.8493042 122.38989258 166.31298828 C128.85128028 163.26681812 134.48421266 159.5452394 140 155 C140.61617187 154.54496094 141.23234375 154.08992187 141.8671875 153.62109375 C155.17467911 143.34918202 164.98020972 124.9410849 167.546875 108.49609375 C169.34738531 92.89227248 169.25240353 77.53931931 163 63 C162.55398437 61.93910156 162.10796875 60.87820312 161.6484375 59.78515625 C152.73337174 40.43597722 137.28487434 26.06265922 117.5703125 18.28515625 C116.39210938 17.86105469 115.21390625 17.43695312 114 17 C112.86304687 16.58621094 111.72609375 16.17242188 110.5546875 15.74609375 C94.66914148 10.73603693 77.62373355 11.46659437 62 17 Z " fill="#FDFDFD" transform="translate(0,0)"/>
<path d="M0 0 C24 0 24 0 32 4 C35.00417522 7.37969713 35.5208321 10.48846217 35.3671875 15.00390625 C34.77067752 18.24663603 33.00242707 20.45145646 31 23 C30.67 23.66 30.34 24.32 30 25 C30.74056641 25.59748047 30.74056641 25.59748047 31.49609375 26.20703125 C32.13675781 26.73683594 32.77742188 27.26664063 33.4375 27.8125 C34.07558594 28.33457031 34.71367188 28.85664062 35.37109375 29.39453125 C37.84143185 31.82932492 37.99325762 33.91066347 38.25 37.3125 C37.97084473 41.43004024 37.2830626 43.5754061 35 47 C23.68346949 55.72315894 17.63186424 52 0 52 C0 34.84 0 17.68 0 0 Z " fill="#F7F7F7" transform="translate(71,67)"/>
<path d="M0 0 C2.701875 -0.061875 5.40375 -0.12375 8.1875 -0.1875 C9.02949951 -0.21481201 9.87149902 -0.24212402 10.73901367 -0.27026367 C15.31952096 -0.32089807 18.28298447 0.01917007 22 3 C23.44430855 5.88861709 23.37688506 7.79647701 23 11 C19.94248243 14.93109402 17.85349243 16.35194845 13 17 C8.66207009 17.12713745 4.34107208 17.04384921 0 17 C0 11.39 0 5.78 0 0 Z " fill="#040404" transform="translate(78,96)"/>
<path d="M0 0 C3.58875 -0.061875 3.58875 -0.061875 7.25 -0.125 C7.99668945 -0.14320801 8.74337891 -0.16141602 9.51269531 -0.18017578 C13.17846664 -0.21074031 15.97656697 -0.17399232 19 2 C21 5 21 5 20.8125 8 C19.98796725 11.04442863 19.45947654 12.13079783 17 14 C13.93618406 15.53190797 10.73034134 15.10243613 7.375 15.0625 C4.94125 15.041875 2.5075 15.02125 0 15 C0 10.05 0 5.1 0 0 Z " fill="#030303" transform="translate(78,74)"/>
</svg>
